<?xml version="1.0" encoding="UTF-8"?>
<svg version="1.1" xmlns="http://www.w3.org/2000/svg" width="28" height="28">
<path d="M0 0 C2.58366245 0.14120016 5.16682885 0.28778333 7.75 0.4375 C8.47960938 0.47681641 9.20921875 0.51613281 9.9609375 0.55664062 C15.60704346 0.89027416 15.60704346 0.89027416 18.07128906 1.57836914 C20.82314358 2.17994544 22.51328796 1.17428068 25 0 C25.10861833 2.70942393 25.18758577 5.414439 25.25 8.125 C25.30027344 9.26582031 25.30027344 9.26582031 25.3515625 10.4296875 C25.443575 15.76641278 24.63180635 18.82215284 21 23 C17.02479311 25.71036834 12.64814629 25.81221933 8 25 C4.92938032 23.28631391 2.59549274 21.19098548 1 18 C0.9047301 16.52331663 0.87014041 15.04224543 0.875 13.5625 C0.87242188 12.78003906 0.86984375 11.99757813 0.8671875 11.19140625 C1 9 1 9 2 6 C1.34 5.34 0.68 4.68 0 4 C0 2.68 0 1.36 0 0 Z M10 10 C8.71677453 11.0595877 8.71677453 11.0595877 8.875 13.5 C8.71677453 15.9404123 8.71677453 15.9404123 10 17 C11.66617115 17.04063832 13.33388095 17.042721 15 17 C13.02 13.535 13.02 13.535 11 10 C10.67 10 10.34 10 10 10 Z " fill="#0C4A76" transform="translate(1,2)"/>
</svg>
